<?xml version="1.0" standalone="no"?><!DOCTYPE svg PUBLIC "-//W3C//DTD SVG 1.1//EN" "http://www.w3.org/Graphics/SVG/1.1/DTD/svg11.dtd"><svg t="1677991732922" class="icon" viewBox="0 0 1024 1024" version="1.1" xmlns="http://www.w3.org/2000/svg" p-id="7404" xmlns:xlink="http://www.w3.org/1999/xlink" width="200" height="200"><path d="M16.7 228l127.1 689L510 994V121l-0.5-0.5-246.1 326.8L16.7 228z" fill="#FFF142" p-id="7405"></path><path d="M757.2 447.3L511 120.6l-0.5 0.5V994l366.2-77 127.1-689-246.6 219.3zM267.1 449.1L199.8 561 18.2 228l248.9 221.1z" fill="#FFC41F" p-id="7406"></path><path d="M757.2 447.3L825.6 561l178.2-333-246.6 219.3z" fill="#FFF142" p-id="7407"></path><path d="M457.4 486a52.9 75 0 1 0 105.8 0 52.9 75 0 1 0-105.8 0Z" fill="#F7F7F7" p-id="7408"></path><path d="M488.1 893.6a23.1 15.9 0 1 0 46.2 0 23.1 15.9 0 1 0-46.2 0Z" fill="#F7F7F7" p-id="7409"></path><path d="M14.1 216m-14.1 0a14.1 14.1 0 1 0 28.2 0 14.1 14.1 0 1 0-28.2 0Z" fill="#FFF142" p-id="7410"></path><path d="M1009.9 217m-14.1 0a14.1 14.1 0 1 0 28.2 0 14.1 14.1 0 1 0-28.2 0Z" fill="#FFF142" p-id="7411"></path><path d="M509.8 73.6m-71.2 0a71.2 71.2 0 1 0 142.4 0 71.2 71.2 0 1 0-142.4 0Z" fill="#FFF142" p-id="7412"></path><path d="M581 73.6c0 39.3-31.9 71.2-71.2 71.2 0.7-71.9 0.7-32.6 0.7-71.9s0-1.2-0.7-70.5c39.3 0 71.2 31.9 71.2 71.2z" fill="#FFC41F" p-id="7413"></path></svg>